<svg id="visual" viewBox="0 0 960 540" width="960" height="540" xmlns="http://www.w3.org/2000/svg" xmlns:xlink="http://www.w3.org/1999/xlink" version="1.1"><rect x="0" y="0" width="960" height="540" fill="#f8f9fa"></rect><defs><linearGradient id="grad1_0" x1="43.8%" y1="0%" x2="100%" y2="100%"><stop offset="14.444444444444446%" stop-color="#f8f9fa" stop-opacity="1"></stop><stop offset="85.55555555555554%" stop-color="#f8f9fa" stop-opacity="1"></stop></linearGradient></defs><defs><linearGradient id="grad2_0" x1="0%" y1="0%" x2="56.3%" y2="100%"><stop offset="14.444444444444446%" stop-color="#f8f9fa" stop-opacity="1"></stop><stop offset="85.55555555555554%" stop-color="#f8f9fa" stop-opacity="1"></stop></linearGradient></defs><g transform="translate(960, 0)"><path d="M0 297C-12 220.6 -24.1 144.2 -74.5 129C-124.9 113.8 -213.7 159.8 -257.2 148.5C-300.7 137.2 -298.8 68.6 -297 0L0 0Z" fill="#e4d2f4"></path></g><g transform="translate(0, 540)"><path d="M0 -297C35.8 -261.7 71.5 -226.5 119 -206.1C166.5 -185.8 225.6 -180.4 257.2 -148.5C288.8 -116.6 292.9 -58.3 297 0L0 0Z" fill="#e4d2f4"></path></g></svg>