<svg id="visual" viewBox="0 0 540 960" width="540" height="960" xmlns="http://www.w3.org/2000/svg" xmlns:xlink="http://www.w3.org/1999/xlink" version="1.1"><rect x="0" y="0" width="540" height="960" fill="#f8f9fa"></rect><defs><linearGradient id="grad1_0" x1="0%" y1="0%" x2="100%" y2="100%"><stop offset="30%" stop-color="#f8f9fa" stop-opacity="1"></stop><stop offset="70%" stop-color="#f8f9fa" stop-opacity="1"></stop></linearGradient></defs><defs><linearGradient id="grad2_0" x1="0%" y1="0%" x2="100%" y2="100%"><stop offset="30%" stop-color="#f8f9fa" stop-opacity="1"></stop><stop offset="70%" stop-color="#f8f9fa" stop-opacity="1"></stop></linearGradient></defs><g transform="translate(540, 0)"><path d="M0 108C-12.4 103.2 -24.9 98.4 -39 94.2C-53.2 90.1 -69.1 86.5 -76.4 76.4C-83.6 66.2 -82.1 49.4 -85.9 35.6C-89.7 21.8 -98.9 10.9 -108 0L0 0Z" fill="#F7770F"></path></g><g transform="translate(0, 960)"><path d="M0 -108C15.3 -107.6 30.6 -107.1 41.3 -99.8C52.1 -92.4 58.2 -78.2 67.9 -67.9C77.5 -57.6 90.7 -51.2 97.9 -40.6C105.2 -29.9 106.6 -15 108 0L0 0Z" fill="#F7770F"></path></g></svg>